<?xml version="1.0" encoding="UTF-8" standalone="no"?>
<!-- Created with Inkscape (http://www.inkscape.org/) -->

<svg
   width="71"
   height="32"
   viewBox="0 0 18.785416 8.4666667"
   version="1.1"
   id="svg1177"
   xmlns="http://www.w3.org/2000/svg"
   xmlns:svg="http://www.w3.org/2000/svg">
  <defs
     id="defs1174" />
  <g
     id="layer1">
    <g
       id="g17189">
      <path
         id="path16765"
         style="font-size:10.4314px;line-height:1.25;font-family:'Share Tech';-inkscape-font-specification:'Share Tech';fill:#09a2db;fill-opacity:1;stroke-width:0.300244"
         d="m 2.317688,0.02997233 c -0.7205634,0 -1.264687,0.14818545 -1.63297526,0.44441734 C 0.31642524,0.76261457 0.13229167,1.2387229 0.13229167,1.9032431 V 6.539136 c 0,0.6885387 0.15982366,1.1768018 0.48007406,1.4650268 C 0.92460998,8.2923885 1.4454579,8.4366946 2.1740276,8.4366946 H 4.0204264 4.527889 7.959721 V 4.8090088 h 2.865975 v 3.6276858 h 3.939295 1.702738 c 0.720564,0 1.264687,-0.1481854 1.632975,-0.4444174 0.368288,-0.2882258 0.552421,-0.764334 0.552421,-1.4288533 V 1.927531 c 0,-0.6885379 -0.159823,-1.17680125 -0.480074,-1.46502691 C 17.860808,0.17427916 17.33996,0.02997233 16.61139,0.02997233 H 14.764991 10.825696 V 3.657658 H 7.959721 V 0.02997233 H 4.527889 4.0204264 Z m 9.552905,0.8764323 h 2.386935 V 3.6566243 H 11.870593 Z M 4.527889,0.90692057 H 6.9148237 V 3.6571413 H 4.527889 Z m -2.4742675,0.023772 h 1.42937 V 7.5359743 H 2.065507 c -0.304238,0 -0.5281975,-0.068016 -0.6723104,-0.2041218 C 1.2490846,7.1877393 1.1771891,6.9632633 1.1771892,6.6590253 v -4.863786 c 0,-0.2642071 0.08017,-0.472133 0.2402954,-0.6242513 C 1.5776098,1.0108628 1.7894151,0.93069256 2.0536215,0.93069257 Z m 13.2488045,0 h 1.417484 c 0.304238,0 0.528198,0.0680153 0.67231,0.20412193 0.144113,0.1441128 0.216008,0.3685899 0.216008,0.6728271 v 4.863786 c 0,0.2642064 -0.08017,0.4721323 -0.240295,0.6242514 -0.160126,0.160125 -0.37193,0.2402953 -0.636137,0.2402953 h -1.42937 z M 11.870593,4.8095256 h 2.386935 V 7.5602623 H 11.870593 Z M 4.527889,4.8100547 H 6.9148237 V 7.5602745 H 4.527889 Z" />
      <rect
         id="rect362-9-4-7"
         width="1.0327214"
         height="1.0327214"
         x="8.9232454"
         y="5.9187117"
         style="fill:#db1f48;fill-opacity:1;stroke-width:0.392603" />
      <rect
         id="rect362-9-4-7-9"
         width="1.0327214"
         height="1.0327214"
         x="8.9232435"
         y="1.5152308"
         style="fill:#0d6b8f;fill-opacity:1;stroke-width:0.392603" />
    </g>
  </g>
</svg>
